<svg width="14" height="14" viewBox="0 0 14 14" fill="none" xmlns="http://www.w3.org/2000/svg">
<g id="Layer_1" clip-path="url(#clip0_171_3286)">
<path id="Vector" d="M7.1371 13.3709C3.51749 13.3726 0.563796 10.4186 0.562927 6.79596C0.562059 3.17337 3.51532 0.218859 7.1358 0.219727C10.7563 0.220595 13.7108 3.17467 13.7117 6.79466C13.7126 10.4133 10.758 13.3687 7.1371 13.3709ZM12.9985 6.79726C13.0002 3.56015 10.3825 0.939904 7.14405 0.935997C3.8969 0.93209 1.27878 3.54583 1.27704 6.79292C1.2753 10.0348 3.88648 12.6498 7.12886 12.6546C10.3721 12.659 12.9967 10.04 12.9985 6.79726Z" fill="#8CFF05"/>
<path id="Vector_2" d="M7.22088 7.15169C7.88307 7.15572 8.54551 7.15534 9.20802 7.15496C9.40286 7.15484 9.59771 7.15473 9.79255 7.15473C9.8421 7.15473 9.89164 7.15483 9.94119 7.15494C10.1196 7.15531 10.2979 7.15568 10.4763 7.15126C10.6916 7.14605 10.8344 6.99932 10.8336 6.79529C10.8327 6.59083 10.6907 6.45105 10.4737 6.4415M7.22088 7.15169L6.78416 4.34959H6.78416H6.78416H6.78416H6.78415H6.78415H6.78415H6.78415H6.78414H6.78414H6.78414H6.78414H6.78413H6.78413H6.78413H6.78412H6.78412H6.78412H6.78412H6.78411H6.78411H6.78411H6.78411H6.7841H6.7841H6.7841H6.78409H6.78409H6.78409H6.78409H6.78408H6.78408H6.78408H6.78408H6.78407H6.78407H6.78407H6.78406H6.78406H6.78406H6.78405H6.78405H6.78405H6.78405H6.78404H6.78404H6.78404H6.78403H6.78403H6.78403H6.78403H6.78402H6.78402H6.78402H6.78401H6.78401H6.78401H6.784H6.784H6.784H6.784H6.78399H6.78399H6.78399H6.78398H6.78398H6.78398H6.78397H6.78397H6.78397H6.78396H6.78396H6.78396H6.78395H6.78395H6.78395H6.78394H6.78394H6.78394H6.78394H6.78393H6.78393H6.78393H6.78392H6.78392H6.78392H6.78391H6.78391H6.78391H6.7839H6.7839H6.7839H6.78389H6.78389H6.78389H6.78388H6.78388H6.78388H6.78387H6.78387H6.78387H6.78386H6.78386H6.78386H6.78385H6.78385H6.78385H6.78384H6.78384H6.78384H6.78383H6.78383H6.78383H6.78382H6.78382H6.78382H6.78381H6.78381H6.78381H6.7838H6.7838H6.7838H6.78379H6.78379H6.78378H6.78378H6.78378H6.78377H6.78377H6.78377H6.78376H6.78376H6.78376H6.78375H6.78375H6.78375H6.78374H6.78374H6.78374H6.78373H6.78373H6.78372H6.78372H6.78372H6.78371H6.78371H6.78371H6.7837H6.7837H6.7837H6.78369H6.78369H6.78369H6.78368C6.78366 4.25206 6.78362 4.15453 6.78359 4.05699C6.78341 3.55573 6.78323 3.05437 6.78416 2.55324C6.78416 2.32316 6.90919 2.17904 7.10931 2.16906C7.32376 2.1582 7.48048 2.29581 7.48786 2.51156C7.4928 2.65414 7.49224 2.79672 7.49169 2.93948C7.49151 2.98493 7.49133 3.0304 7.49133 3.0759C7.49133 3.17387 7.49133 3.27185 7.49134 3.36983C7.49137 4.34973 7.49141 5.32963 7.48786 6.30953C7.48786 6.41328 7.51477 6.44324 7.61983 6.4428C8.31696 6.43982 9.01383 6.44013 9.71084 6.44044C9.92531 6.44054 10.1398 6.44063 10.3543 6.44063C10.3643 6.44063 10.3743 6.44058 10.3842 6.44052C10.414 6.44036 10.4437 6.4402 10.4737 6.4415M7.22088 7.15169C7.12451 7.15126 7.01902 7.12434 6.93437 7.07876L7.22088 7.15169ZM10.4737 6.4415L10.4601 6.75069C10.4601 6.75069 10.4602 6.75069 10.4602 6.75069C10.4828 6.7517 10.4975 6.75582 10.5058 6.75917C10.514 6.76244 10.517 6.76533 10.5177 6.76595C10.5182 6.76646 10.519 6.76732 10.5202 6.77015C10.5214 6.77321 10.524 6.78136 10.5241 6.79661C10.5241 6.81117 10.5217 6.81965 10.5201 6.82354C10.5187 6.82728 10.5173 6.8288 10.5166 6.82956C10.5158 6.83035 10.5133 6.8327 10.5069 6.83527C10.5004 6.8379 10.4882 6.84139 10.4688 6.84186L10.4686 6.84187C10.2948 6.84617 10.1219 6.84582 9.94423 6.84545C9.8941 6.84535 9.84358 6.84525 9.79255 6.84525C9.5973 6.84525 9.40219 6.84536 9.20719 6.84547C8.54487 6.84585 7.88382 6.84623 7.22276 6.84221L7.22227 6.84221C7.18173 6.84203 7.13324 6.83078 7.09483 6.81311C7.09457 6.81182 7.09431 6.81041 7.09405 6.80887C7.0923 6.79853 7.09098 6.78412 7.09104 6.76505L7.09104 6.765C7.09262 6.25418 7.09236 5.74289 7.09211 5.23236C7.09206 5.1444 7.09202 5.05646 7.09198 4.96856H7.18133L10.4737 6.4415ZM7.09321 4.58506C7.0932 4.40884 7.09314 4.23267 7.09307 4.05654C7.0929 3.55541 7.09272 3.05459 7.09365 2.55381H7.09365V2.55324C7.09365 2.50734 7.10291 2.48688 7.10629 2.48095C7.109 2.48008 7.11482 2.47865 7.12473 2.47816L7.12495 2.47815C7.14364 2.4772 7.1554 2.47974 7.16145 2.48173C7.16727 2.48364 7.16929 2.48546 7.16958 2.48571L7.16959 2.48572L7.16961 2.48574C7.16986 2.48596 7.17111 2.48707 7.17279 2.49085C7.1746 2.49495 7.17796 2.50467 7.17855 2.52214L7.17856 2.52228C7.18327 2.65835 7.18275 2.79265 7.18221 2.93391C7.18203 2.98039 7.18184 3.02761 7.18184 3.0759C7.18184 3.17386 7.18185 3.27182 7.18185 3.36978C7.18187 3.8338 7.18189 4.29768 7.18152 4.76148L7.09321 4.58506Z" fill="#3965FF" stroke="#8CFF05" stroke-width="0.618972"/>
</g>
<defs>
<clipPath id="clip0_171_3286">
<rect width="13.1488" height="13.1512" fill="white" transform="translate(0.5625 0.220215)"/>
</clipPath>
</defs>
</svg>
