<svg width="15" height="18" viewBox="0 0 15 18" fill="none" xmlns="http://www.w3.org/2000/svg">
<path id="Vector" d="M12.0931 1.51875C12.7077 1.51875 13.2921 1.51426 13.8764 1.51987C14.1881 1.52323 14.3547 1.69926 14.3233 2.01208C14.161 3.61093 13.7563 5.12344 12.7932 6.42293C12.3138 7.06987 11.7143 7.56208 10.9904 7.89732C10.8638 7.95562 10.7393 8.07447 10.6679 8.19893C10.1636 9.08693 9.57168 9.88299 8.66702 10.3763C8.59993 10.4133 8.52742 10.5131 8.52309 10.5882C8.49279 11.1242 8.4744 11.6624 8.46358 12.1994C8.45925 12.4091 8.55556 12.501 8.78064 12.4943C9.39205 12.4775 10.0035 12.4864 10.6159 12.4898C10.9925 12.492 11.1148 12.6199 11.1159 13.0123C11.1181 13.6559 11.1159 14.2983 11.1159 14.9419C11.1159 15.0417 11.1159 15.1415 11.1159 15.2749C11.3431 15.2749 11.539 15.2704 11.7338 15.2749C12.0238 15.2827 12.1666 15.4207 12.171 15.7211C12.1785 16.2616 12.1796 16.802 12.1721 17.3435C12.1677 17.672 12.0238 17.8122 11.6981 17.8122C8.82826 17.8144 5.95843 17.8144 3.08861 17.8122C2.76613 17.8122 2.63194 17.6676 2.62978 17.3323C2.62653 16.8009 2.62545 16.2694 2.62978 15.738C2.63303 15.4218 2.77262 15.2805 3.0767 15.2749C3.32776 15.2704 3.57773 15.2749 3.86125 15.2749C3.86883 15.1594 3.87965 15.0619 3.87965 14.9643C3.88073 14.3488 3.87965 13.7343 3.87965 13.1188C3.87965 12.5896 3.9792 12.4898 4.50079 12.4887C5.04944 12.4887 5.59916 12.4775 6.14672 12.4943C6.35882 12.501 6.45405 12.4124 6.45189 12.2174C6.44431 11.6893 6.427 11.1612 6.39994 10.6342C6.3967 10.5692 6.32852 10.4806 6.26792 10.4514C5.30482 9.98053 4.67935 9.16765 4.14802 8.24938C4.06361 8.10362 3.91644 7.96572 3.76819 7.8962C2.55403 7.32999 1.76191 6.35117 1.21867 5.12793C0.794477 4.16257 0.550996 3.14563 0.459015 2.08832C0.423304 1.67348 0.557489 1.52099 0.956797 1.51875C1.46107 1.51651 1.96427 1.50866 2.46746 1.52211C2.6709 1.52772 2.74016 1.45484 2.73042 1.24966C2.72068 1.06354 2.73258 0.877416 2.7434 0.691295C2.76288 0.338113 2.89057 0.208053 3.23469 0.206932C4.29627 0.203568 5.35785 0.20581 6.41942 0.20581C8.10214 0.20581 9.78378 0.20581 11.4665 0.20581C11.934 0.20581 12.0076 0.274204 12.0498 0.761931C12.0703 1.00075 12.079 1.24181 12.0941 1.51875H12.0931ZM1.29767 2.31145C1.223 3.74884 2.53022 6.39378 3.49765 6.76266C3.42299 6.51711 3.3494 6.29063 3.28555 6.06078C2.96849 4.91938 2.78885 3.75557 2.73691 2.56932C2.7315 2.45272 2.76072 2.31032 2.57784 2.31032C2.15689 2.31032 1.73594 2.31032 1.29767 2.31032V2.31145ZM11.2858 6.77611C12.3809 6.14487 13.6676 3.44948 13.449 2.33275H12.0747C12.0087 3.84414 11.7825 5.30508 11.2858 6.77611Z" fill="#8CFF05"/>
</svg>
