<svg width="22" height="22" viewBox="0 0 22 22" fill="none" xmlns="http://www.w3.org/2000/svg">
<g id="Layer_1" clip-path="url(#clip0_171_3290)">
<path id="Vector" d="M10.9622 0.602783C11.4125 0.609338 11.707 0.845308 11.9005 1.24842C12.5321 2.56428 13.1694 3.87768 13.8043 5.19108C14.0258 5.64909 14.257 6.10301 14.4672 6.56675C14.5628 6.77732 14.7072 6.87236 14.9247 6.90432C16.2338 7.09441 17.5413 7.29023 18.8495 7.48523C19.4836 7.57945 20.1177 7.67696 20.7517 7.77282C21.1699 7.83591 21.4468 8.08089 21.5752 8.484C21.6996 8.87319 21.6146 9.22551 21.3248 9.51637C20.4146 10.4275 19.5029 11.3386 18.5911 12.2489C18.0895 12.7495 17.5894 13.2509 17.083 13.745C16.9321 13.8916 16.8847 14.0465 16.9208 14.2571C17.2523 16.2046 17.571 18.1538 17.9057 20.1006C17.9819 20.5463 17.892 20.9232 17.5413 21.196C17.1769 21.4804 16.7852 21.4713 16.3767 21.2509C14.6647 20.3275 12.9471 19.4164 11.2343 18.4947C11.0441 18.3923 10.8795 18.3882 10.6877 18.4914C8.97493 19.4132 7.25894 20.3275 5.54454 21.2468C4.96666 21.5574 4.3952 21.4238 4.10545 20.8568C4.00833 20.6668 3.97141 20.4046 4.00593 20.1907C4.31253 18.2669 4.63036 16.3447 4.97067 14.4267C5.03408 14.0694 4.94178 13.8441 4.69618 13.6041C3.32531 12.2571 1.96567 10.8978 0.607644 9.53767C0.092363 9.02149 0.212756 8.19805 0.850837 7.8736C1.00735 7.79412 1.19436 7.76626 1.37093 7.74004C3.22016 7.46147 5.0694 7.18289 6.92023 6.91743C7.19473 6.8781 7.35605 6.76093 7.47805 6.50366C8.31357 4.7511 9.16515 3.00672 10.0079 1.25743C10.2061 0.847766 10.5007 0.602783 10.9622 0.602783ZM4.68655 20.3374C4.67852 20.611 4.89603 20.7602 5.13521 20.6545C5.18417 20.6332 5.22992 20.6053 5.27727 20.5799C6.96036 19.6754 8.64586 18.7749 10.3249 17.8613C10.7608 17.6237 11.1661 17.6319 11.5979 17.8663C13.2593 18.7683 14.9271 19.6598 16.5926 20.5553C16.7571 20.6438 16.9225 20.7733 17.1095 20.6266C17.2852 20.4898 17.2242 20.2948 17.1945 20.1153C16.8711 18.1809 16.5468 16.2472 16.2226 14.3128C16.1551 13.9088 16.2531 13.5647 16.5484 13.2722C17.9434 11.8925 19.3335 10.5078 20.7253 9.12473C20.8416 9.0092 20.9564 8.89449 20.8986 8.70113C20.8408 8.50776 20.6875 8.47745 20.523 8.45369C18.6465 8.17921 16.7716 7.89326 14.8934 7.63353C14.3629 7.55979 14.0306 7.30416 13.7979 6.81255C12.9704 5.06408 12.1156 3.32872 11.2736 1.58763C11.2046 1.44424 11.1219 1.32216 10.9526 1.32216C10.78 1.32216 10.7046 1.45572 10.6372 1.595C9.77915 3.36641 8.91634 5.13455 8.06476 6.90924C7.86812 7.31972 7.57276 7.54914 7.13052 7.61223C5.63685 7.82689 4.14478 8.05139 2.65191 8.27098C2.22251 8.33406 1.79311 8.39634 1.36371 8.45942C1.20559 8.48237 1.06433 8.52333 1.01216 8.7085C0.9624 8.8863 1.06594 8.99036 1.17188 9.09769C1.21442 9.14111 1.25857 9.18208 1.30191 9.22469C2.6495 10.5668 3.99469 11.9105 5.34469 13.2493C5.66012 13.5623 5.76125 13.9228 5.685 14.3628C5.4378 15.7917 5.20263 17.2231 4.96425 18.6536C4.87035 19.2182 4.77804 19.7819 4.68655 20.3357V20.3374Z" fill="#8CFF05"/>
</g>
<defs>
<clipPath id="clip0_171_3290">
<rect width="21.344" height="20.8104" fill="white" transform="translate(0.287354 0.604492)"/>
</clipPath>
</defs>
</svg>
